<svg width="203" height="90" viewBox="0 0 203 90" fill="none" xmlns="http://www.w3.org/2000/svg">
<path fill-rule="evenodd" clip-rule="evenodd" d="M57.2228 0.229821C60.3858 1.07745 61.9296 3.75063 61.082 6.91361L59.6694 12.185L64.9412 13.5974C68.1044 14.445 69.6477 17.1193 68.8001 20.2824C67.9524 23.4453 65.2788 24.9888 62.1158 24.1413L56.844 22.7288L55.4314 28.0002C54.5839 31.1633 51.9099 32.7078 48.7468 31.8603C45.5837 31.0127 44.0403 28.3383 44.8879 25.1753L46.3004 19.9039L41.0287 18.4915C37.8655 17.6439 36.3222 14.9696 37.1698 11.8065C38.0175 8.64373 40.6911 7.1001 43.8541 7.9476L49.1259 9.36005L50.5385 4.08871C51.386 0.925638 54.0596 -0.617721 57.2228 0.229821ZM49.2222 22.9627C48.9846 22.8988 48.7344 22.9005 48.4991 22.9681C48.2635 23.036 48.0513 23.1677 47.8879 23.3475C47.7247 23.5271 47.616 23.7481 47.5732 23.9861C47.5304 24.2244 47.5546 24.4711 47.6452 24.6972L48.8001 27.5929C48.8768 27.7849 48.9982 27.9572 49.1543 28.0952C49.3105 28.2331 49.4974 28.3332 49.6994 28.3873C49.9014 28.4415 50.1133 28.4482 50.3175 28.4068C50.5217 28.3654 50.7131 28.2768 50.8755 28.149L53.3248 26.2189C53.5156 26.0682 53.6594 25.8673 53.7412 25.6399C53.823 25.4123 53.8399 25.1656 53.7883 24.9284C53.7367 24.6913 53.6193 24.4724 53.4496 24.2958C53.2799 24.1192 53.064 23.9923 52.8264 23.9284L49.2222 22.9627ZM45.0647 10.5582C44.8265 10.5156 44.5807 10.54 44.3547 10.6305L41.4587 11.7853C41.2667 11.862 41.0945 11.9833 40.9564 12.1395C40.8184 12.2958 40.7184 12.4825 40.6643 12.6846C40.6101 12.8866 40.6034 13.0984 40.6448 13.3026C40.6862 13.5069 40.7747 13.6981 40.9026 13.8605L42.8329 16.3097C42.9837 16.5006 43.1843 16.6443 43.4119 16.726C43.6394 16.8077 43.8853 16.8243 44.1223 16.7728C44.3595 16.7212 44.5795 16.6042 44.7561 16.4345C44.9327 16.2648 45.0597 16.0489 45.1236 15.8113L46.0893 12.2074C46.1533 11.9697 46.1505 11.7195 46.0827 11.484C46.0148 11.2484 45.8843 11.0367 45.7045 10.8732C45.5248 10.7098 45.303 10.601 45.0647 10.5582ZM62.579 15.2508C62.3515 15.1691 62.1056 15.1525 61.8686 15.204C61.6314 15.2556 61.4114 15.3727 61.2347 15.5424C61.0582 15.7121 60.9312 15.9279 60.8673 16.1655L59.9015 19.7694C59.8375 20.0071 59.8403 20.2574 59.9081 20.4928C59.976 20.7284 60.1066 20.9402 60.2863 21.1036C60.4661 21.267 60.6879 21.3758 60.9262 21.4186C61.1643 21.4613 61.4102 21.4368 61.6361 21.3463L64.5321 20.1915C64.7242 20.1148 64.8964 19.9935 65.0344 19.8373C65.1724 19.6811 65.2724 19.4943 65.3266 19.2923C65.3807 19.0903 65.3875 18.8785 65.3461 18.6742C65.3047 18.47 65.2162 18.2787 65.0882 18.1163L63.158 15.6672C63.0072 15.4763 62.8065 15.3326 62.579 15.2508ZM56.3109 3.71496C56.1088 3.6608 55.8971 3.65405 55.6927 3.69547C55.4884 3.7369 55.2973 3.82525 55.1348 3.95332L52.6855 5.8834C52.4947 6.0342 52.3508 6.23488 52.2691 6.46238C52.1874 6.68991 52.1707 6.93567 52.2223 7.17272C52.2739 7.40983 52.3913 7.6287 52.561 7.80531C52.7307 7.9819 52.9465 8.10881 53.1842 8.17271L56.7884 9.13838C57.026 9.20234 57.2761 9.20069 57.5115 9.13297C57.747 9.06511 57.959 8.93442 58.1224 8.75481C58.2858 8.5751 58.3946 8.35325 58.4374 8.11504C58.4801 7.87694 58.4555 7.63108 58.3651 7.40512L57.2102 4.50938C57.1335 4.31727 57.0122 4.14516 56.8559 4.00712C56.6997 3.86909 56.513 3.76912 56.3109 3.71496Z" fill="#89CFF0"/>
<path fill-rule="evenodd" clip-rule="evenodd" d="M17.9065 84.4034C22.0941 87.4973 26.3442 89.0443 30.6567 89.0443C33.1287 89.0316 35.4412 88.641 37.5943 87.8724H179.056C184.712 87.8724 189.587 86.1066 193.681 82.5751C197.806 79.0124 200.509 74.0902 201.791 67.8085H200.291C198.947 72.3088 196.916 75.934 194.197 78.6842C191.478 81.4344 188.119 82.8564 184.118 82.9501C179.493 83.0752 175.634 80.9969 172.54 76.7153C169.446 72.4025 168.103 67.2459 168.509 61.2455H202.4C202.087 54.3075 199.962 48.7603 196.025 44.6037C192.15 40.4472 186.79 38.3689 179.947 38.3689C174.14 38.3689 169.225 40.119 165.201 43.6193C165.201 43.6193 164.111 45.0391 162.624 46.2375C161.538 47.1135 160.239 47.8713 158.999 47.8696C156.984 47.8669 154.825 45.8595 153.661 44.5896C153.382 44.2861 153.161 44.0247 153.012 43.8429C152.941 43.7675 152.869 43.693 152.796 43.6193C149.921 40.8066 146.093 39.4628 141.312 39.5878C135.686 39.5878 131.061 41.6973 127.436 45.9163C127.28 42.5098 126.796 40.4003 125.983 39.5878L109.483 42.2129L104.927 42.9377C102.148 40.59 98.5694 39.4733 94.1921 39.5878C88.567 39.5878 83.9419 41.6973 80.3169 45.9163C80.1606 42.5098 79.6762 40.4003 78.8637 39.5878H62.6353L42.4504 42.5392C39.2837 40.5716 35.5712 39.5878 31.313 39.5878C26.2192 39.5878 21.6878 41.4473 17.719 45.1663V16.8987L0 19.6645V21.2584C4.34382 20.4458 6.51573 22.7428 6.51573 28.1495V89.56H8.25013C8.90639 86.3723 10.1564 84.3252 12.0002 83.4189C13.9065 82.4814 15.8752 82.8095 17.9065 84.4034ZM22.2191 44.885C24.1879 43.7599 26.1723 43.1974 28.1723 43.1974C32.1724 43.1661 35.313 45.0725 37.5943 48.9165C39.7819 52.698 40.8756 57.7453 40.8756 64.0582C40.9069 70.4337 39.6725 75.6996 37.1724 79.8562C34.6412 84.0752 31.4849 86.091 27.7036 85.9035C25.3285 85.716 23.0629 84.5596 20.9066 82.4345C18.844 80.1218 17.7815 77.2154 17.719 73.7151V48.5884C18.8128 47.2133 20.3128 45.9788 22.2191 44.885ZM109.802 76.2934V55.5732C109.802 51.0215 110.839 48.0257 112.913 46.5857C115.033 48.0257 116.092 51.0215 116.092 55.5732V76.2934C116.092 80.8451 115.033 83.841 112.913 85.281C110.839 83.841 109.802 80.8451 109.802 76.2934ZM98.6921 76.2934C98.6921 82.8564 96.5359 86.1847 92.2233 86.2785H86.8795C82.5044 86.1847 80.3169 82.8564 80.3169 76.2934V54.0263C80.3169 51.2136 81.1763 48.7759 82.895 46.7133C84.6763 44.6194 86.8326 43.5724 89.3639 43.5724C92.2077 43.5412 94.4733 44.5725 96.1609 46.6664C97.8796 48.729 98.7234 51.1823 98.6921 54.0263V76.2934ZM68.9729 50.7448V76.2934C68.9729 80.7902 67.9386 83.7685 65.87 85.2282C63.7355 83.8245 62.6573 80.9713 62.6353 76.6685V43.809C66.8604 43.1692 68.9729 45.4811 68.9729 50.7448ZM145.812 76.2934C145.812 82.8564 143.655 86.1847 139.343 86.2785H133.999C129.624 86.1847 127.436 82.8564 127.436 76.2934V54.0263C127.436 51.2136 128.296 48.7759 130.014 46.7133C131.796 44.6194 133.952 43.5724 136.483 43.5724C139.327 43.5412 141.593 44.5725 143.28 46.6664C144.999 48.729 145.843 51.1823 145.812 54.0263V76.2934ZM174.65 42.5411C176.15 41.2285 177.837 40.541 179.712 40.4784C182.181 40.3847 184.29 41.5098 186.04 43.8537C187.822 46.1663 188.994 48.6821 189.556 51.4011C190.181 54.0888 190.447 56.6046 190.353 58.9485H168.649C168.774 57.1046 169.04 55.2295 169.446 53.3231C169.853 51.3542 170.462 49.4009 171.275 47.4633C172.087 45.4632 173.212 43.8224 174.65 42.5411Z" fill="white"/>
</svg>
