<svg width="76" height="76" viewBox="0 0 76 76" fill="none" xmlns="http://www.w3.org/2000/svg">
<path fill-rule="evenodd" clip-rule="evenodd" d="M48.0367 0.544295C55.5277 2.55176 59.1839 8.88277 57.1766 16.3738L53.8312 28.8581L66.3165 32.2033C73.808 34.2105 77.463 40.5444 75.4557 48.0356C73.4481 55.5264 67.1161 59.182 59.6249 57.1748L47.1395 53.8296L43.7941 66.3139C41.7868 73.8052 35.454 77.4632 27.9625 75.456C20.4713 73.4486 16.8161 67.1147 18.8234 59.6236L22.1688 47.1393L9.68348 43.7941C2.19204 41.7869 -1.46299 35.453 0.544334 27.9618C2.55199 20.4713 8.88405 16.8154 16.3751 18.8226L28.8605 22.1678L32.2059 9.68345C34.2132 2.19223 40.5453 -1.46297 48.0367 0.544295ZM29.0885 54.3835C28.5259 54.232 27.9333 54.236 27.376 54.3963C26.8179 54.5571 26.3156 54.869 25.9285 55.2948C25.542 55.7201 25.2846 56.2436 25.1832 56.8071C25.0819 57.3715 25.1391 57.9558 25.3537 58.4913L28.0888 65.3494C28.2704 65.8041 28.558 66.2122 28.9278 66.5389C29.2977 66.8656 29.7403 67.1026 30.2187 67.2309C30.6971 67.359 31.1989 67.3749 31.6826 67.277C32.1662 67.179 32.6194 66.9692 33.0041 66.6663L38.8049 62.0953C39.2569 61.7383 39.5974 61.2626 39.7911 60.724C39.9847 60.1849 40.0249 59.6006 39.9027 59.0389C39.7804 58.4774 39.5023 57.9588 39.1004 57.5407C38.6985 57.1224 38.1873 56.8219 37.6245 56.6705L29.0885 54.3835ZM19.2422 25.0055C18.6781 24.9045 18.0959 24.9624 17.5607 25.1767L10.7021 27.9116C10.2471 28.0932 9.83931 28.3806 9.51244 28.7506C9.18561 29.1205 8.94871 29.5629 8.82044 30.0413C8.69223 30.5198 8.67633 31.0214 8.77428 31.5052C8.87235 31.9889 9.08196 32.4418 9.38502 32.8265L13.9565 38.6269C14.3136 39.079 14.7888 39.4193 15.3278 39.6129C15.8665 39.8064 16.4489 39.8457 17.0103 39.7238C17.572 39.6015 18.0931 39.3243 18.5114 38.9224C18.9296 38.5205 19.2303 38.0092 19.3816 37.4466L21.6689 28.9113C21.8204 28.3483 21.8138 27.7557 21.6532 27.1981C21.4924 26.6401 21.1833 26.1386 20.7575 25.7515C20.3318 25.3645 19.8065 25.1068 19.2422 25.0055ZM60.7219 36.1191C60.1831 35.9256 59.6008 35.8863 59.0394 36.0082C58.4777 36.1305 57.9566 36.4077 57.5383 36.8096C57.1201 37.2115 56.8194 37.7228 56.668 38.2854L54.3808 46.8207C54.2293 47.3836 54.2359 47.9763 54.3965 48.5339C54.5573 49.0919 54.8664 49.5934 55.2922 49.9805C55.7179 50.3675 56.2432 50.6252 56.8075 50.7265C57.3715 50.8275 57.9538 50.7696 58.489 50.5553L65.3476 47.8204C65.8025 47.6388 66.2104 47.3514 66.5372 46.9814C66.8641 46.6115 67.101 46.1691 67.2293 45.6907C67.3575 45.2122 67.3734 44.7106 67.2754 44.2268C67.1773 43.7431 66.9677 43.2902 66.6647 42.9055L62.0932 37.1051C61.7361 36.653 61.2608 36.3127 60.7219 36.1191ZM45.8769 8.79828C45.3983 8.67003 44.897 8.65404 44.413 8.75213C43.929 8.85024 43.4764 9.05949 43.0916 9.36281L37.2907 13.9339C36.8388 14.291 36.4981 14.7663 36.3046 15.3051C36.1112 15.844 36.0716 16.426 36.1937 16.9874C36.3159 17.549 36.5941 18.0674 36.996 18.4856C37.3979 18.9038 37.9091 19.2044 38.4719 19.3558L47.0079 21.6428C47.5706 21.7943 48.163 21.7904 48.7204 21.63C49.2782 21.4693 49.7802 21.1597 50.1672 20.7344C50.5542 20.3087 50.8118 19.7833 50.9132 19.2192C51.0144 18.6553 50.9561 18.073 50.742 17.5378L48.0068 10.6797C47.8253 10.2248 47.5378 9.81714 47.1678 9.49022C46.7978 9.16332 46.3556 8.92656 45.8769 8.79828Z" fill="#89CFF0"/>
</svg>
