<svg width="76" height="76" viewBox="0 0 76 76" fill="none" xmlns="http://www.w3.org/2000/svg">
<path d="M18.9046 67.5364C20.4421 68.4654 22.2446 69.0003 24.1673 69.0003C24.8397 69.0001 25.4582 68.7754 25.9584 68.4016C26.4587 68.7755 27.0777 69.0003 27.7503 69.0003H36.7084C37.3809 69.0002 38 68.7755 38.5003 68.4016C39.0007 68.7754 39.6198 69.0003 40.2923 69.0003H42.8158C40.1446 74.6492 34.4939 77.2064 27.9623 75.4563C23.3976 74.2331 20.2573 71.4029 18.9544 67.6839L18.9046 67.5364Z" fill="#89CFF0"/>
<path d="M66.3167 32.2034C73.808 34.2107 77.4627 40.5443 75.4554 48.0354C73.7346 54.4564 68.8365 58.0588 62.7542 57.6927C62.6618 57.4794 62.5462 57.2786 62.4095 57.094C62.7787 56.5956 63.0003 55.9807 63.0003 55.3128V48.7561L65.348 47.8206C65.8028 47.639 66.2106 47.3515 66.5375 46.9817C66.8642 46.6118 67.1006 46.1691 67.2289 45.6907C67.3571 45.2123 67.3737 44.7105 67.2757 44.2268C67.1777 43.7431 66.9675 43.2902 66.6644 42.9055L63.0003 38.2552V31.3137L66.3167 32.2034Z" fill="#89CFF0"/>
<path d="M49.8871 47.6253C49.8525 47.8074 49.8334 47.9956 49.8334 48.1878V54.5511L47.14 53.8294L46.5921 55.8753H40.2923C39.6198 55.8753 39.0006 56.0992 38.5003 56.4729C38.0001 56.0993 37.3807 55.8753 36.7084 55.8753H34.6576L29.0882 54.3831C28.5259 54.2318 27.9334 54.2356 27.3763 54.3958C27.3059 54.4161 27.2358 54.4382 27.1673 54.4632V48.1878C27.1673 47.9956 27.1482 47.8074 27.1136 47.6253H49.8871Z" fill="#89CFF0"/>
<path d="M0.54429 27.9612C2.33593 21.2773 7.57117 17.6464 14.0003 18.3684V26.596L10.7025 27.9114C10.2476 28.093 9.83893 28.3803 9.51206 28.7503C9.18529 29.1202 8.94891 29.5628 8.82066 30.0413C8.69245 30.5197 8.67681 31.0214 8.77476 31.5052C8.87284 31.9888 9.08209 32.4418 9.38511 32.8264L13.9564 38.6272C13.9703 38.6448 13.9861 38.6608 14.0003 38.678V44.6253C14.0004 44.7369 14.0078 44.847 14.0199 44.9553L9.68394 43.7942C2.1925 41.7869 -1.46304 35.4524 0.54429 27.9612Z" fill="#89CFF0"/>
<path d="M33.7044 6.00027C36.5461 1.05371 41.9025 -1.09924 48.0365 0.544217C55.4845 2.54015 59.1405 8.80976 57.2093 16.2444L47.7826 6.87234C46.9232 6.01801 45.6338 5.76545 44.515 6.23074C44.283 6.32724 44.0688 6.45201 43.8734 6.59793C43.4118 6.25351 42.8501 6.03521 42.2376 6.00418L42.0834 6.00027H33.7044Z" fill="#89CFF0"/>
<path d="M24.1663 8.99951C20.2134 8.99951 16.9996 12.1946 16.9996 16.1245V44.6245H59.9996V26.812H45.6663C43.6843 26.812 42.083 25.22 42.083 23.2495V8.99951H24.1663ZM45.6663 8.99951V23.2495H59.9996L45.6663 8.99951ZM16.9996 55.312H24.1663V48.187H16.9996V55.312ZM49.2496 58.8745H40.2913V65.9995H49.2496V58.8745ZM36.708 58.8745H27.7496V65.9995H36.708V58.8745ZM24.1663 58.8745H16.9996C16.9996 62.8044 20.2134 65.9995 24.1663 65.9995V58.8745ZM52.833 58.8745V65.9995C56.7858 65.9995 59.9996 62.8044 59.9996 58.8745H52.833ZM59.9996 55.312V48.187H52.833V55.312H59.9996Z" fill="white"/>
</svg>
