<svg width="76" height="76" viewBox="0 0 76 76" fill="none" xmlns="http://www.w3.org/2000/svg">
<path d="M46.3549 24.6361L44.5844 37.016H57.3441C57.0271 37.3808 56.795 37.8148 56.6684 38.2856L54.3812 46.8207C54.2297 47.3836 54.2363 47.9761 54.3969 48.5336C54.5577 49.0915 54.8666 49.5928 55.2924 49.9799C55.718 50.3668 56.2429 50.6246 56.807 50.726C57.371 50.827 57.9535 50.7693 58.4887 50.5551L65.348 47.8197C65.8028 47.6381 66.2108 47.3507 66.5375 46.9809C66.8642 46.611 67.1007 46.1682 67.2289 45.6899C67.357 45.2117 67.3736 44.7104 67.2758 44.227C67.1777 43.7433 66.9675 43.2894 66.6645 42.9047L62.0932 37.1049C62.0691 37.0744 62.0431 37.0455 62.018 37.016H64.892L65.6049 32.0111L66.3168 32.2026C73.8081 34.2099 77.4628 40.5444 75.4555 48.0356C73.4478 55.5261 67.1155 59.1814 59.6244 57.1742L47.1391 53.8295L43.7943 66.3139C41.7869 73.805 35.4537 77.4627 27.9623 75.4555C24.4012 74.5012 21.7077 72.5687 20.0766 69.9994H28.6332L29.1039 66.6811C29.4353 66.934 29.814 67.1223 30.2191 67.2309C30.6973 67.3589 31.1995 67.3746 31.683 67.2768C32.1664 67.1787 32.6198 66.9692 33.0043 66.6664L38.8051 62.0951C39.2569 61.7382 39.5977 61.2626 39.7914 60.724C39.985 60.1849 40.025 59.6002 39.9027 59.0385C39.7804 58.477 39.5018 57.9586 39.1 57.5404C38.6981 57.1223 38.1872 56.8217 37.6244 56.6703L30.7846 54.8373L32.9496 39.5854H33.5219L33.7172 39.56C34.3079 39.4818 34.8887 39.3465 35.4584 39.1645L35.4594 39.1654C36.2251 38.942 36.9478 38.6123 37.6244 38.1928L37.6352 38.1869L37.6459 38.1801C38.1067 37.8891 38.541 37.5597 38.9486 37.1957C39.3279 36.857 39.6802 36.4882 40.0102 36.0961C40.5633 35.5103 40.9736 34.8311 41.2406 34.0893L41.2738 33.9975L41.3012 33.9037L41.56 33.0033L41.6176 32.8051L41.6469 32.599L42.7885 24.6361H46.3549Z" fill="#89CFF0"/>
<path d="M0.544332 27.9613C2.55201 20.4709 8.88435 16.8155 16.3754 18.8227L23.182 20.6459L22.725 23.9477H22.2543L22.1068 23.9623C21.7213 24.0006 21.3369 24.0575 20.9555 24.1332L20.8178 24.1606L20.683 24.2006C20.3082 24.3122 19.9369 24.4416 19.5697 24.5873C19.2878 24.6992 19.0114 24.8228 18.7416 24.9584C18.3399 24.9529 17.9387 25.025 17.5609 25.1762L10.7016 27.9115C10.2468 28.0932 9.83886 28.3806 9.5121 28.7504C9.18539 29.1203 8.94894 29.563 8.8207 30.0414C8.69257 30.5198 8.67589 31.0216 8.77382 31.5053C8.87192 31.9889 9.08217 32.442 9.38515 32.8266L13.1371 37.5863L12.1635 44.4574L9.683 43.7934C2.1919 41.786 -1.46295 35.4524 0.544332 27.9613Z" fill="#89CFF0"/>
<path d="M33.6723 6.05509C36.5058 1.06922 41.8796 -1.10533 48.0365 0.544351C51.5979 1.49875 54.2919 3.4305 55.9232 5.99943H34.7055C34.3584 5.99944 34.0139 6.01895 33.6723 6.05509Z" fill="#89CFF0"/>
<path d="M37.7707 33.6304C37.5405 33.6304 37.3103 33.6447 37.08 33.6732C36.7923 33.5304 36.5333 33.3877 36.303 33.2449C36.1304 33.1878 35.9721 33.1021 35.8282 32.9879C35.6555 32.8165 35.4829 32.6452 35.3102 32.4738L31.641 26.948L30.3459 36.5861C31.3244 36.5861 32.3172 36.5861 33.3245 36.5861C33.7562 36.529 34.1879 36.4283 34.6195 36.2856C35.1088 36.1428 35.5829 35.9286 36.0434 35.643C36.3599 35.4431 36.6628 35.2154 36.9506 34.9584C37.2384 34.7014 37.5117 34.4157 37.7707 34.1016C38.0585 33.816 38.2745 33.4734 38.4184 33.0736C38.3896 33.1022 38.3463 33.1306 38.2887 33.1592C38.2312 33.2449 38.1592 33.3163 38.0729 33.3734C38.0441 33.4305 38.0153 33.4876 37.9866 33.5447C37.9002 33.5733 37.8283 33.6018 37.7707 33.6304Z" fill="#966214"/>
<path d="M38.6771 32.1733L40.1879 21.6361H49.8139L48.0443 34.016H62.2894L64.2755 20.0942H64.2324L64.923 15.2109C65.1533 13.8116 64.8655 12.6122 64.0597 11.6127C63.8582 11.3842 63.6424 11.1558 63.4122 10.9273C63.2683 10.7845 63.11 10.6417 62.9373 10.4989C62.8222 10.3847 62.6927 10.2848 62.5488 10.1991C61.4265 9.39948 60.1314 8.99967 58.6638 8.99967L34.7055 8.99943L34.4237 9.00512C33.9155 9.02574 33.4198 9.10237 32.9366 9.23492C32.7765 9.27887 32.6177 9.32896 32.4603 9.38517C31.5107 9.6993 30.6049 10.2134 29.7416 10.9273C28.1588 12.2124 27.2235 13.7116 26.9357 15.4251L25.3383 26.9477C24.9929 26.9477 24.6477 26.9477 24.3024 26.9478C23.9571 26.9479 23.6118 26.948 23.2665 26.948C22.9787 26.948 22.6905 26.9477 22.4027 26.9477C22.1149 26.9762 21.8276 27.0194 21.5398 27.0765C21.252 27.1622 20.9642 27.2621 20.6764 27.3763C20.3886 27.4906 20.1153 27.6191 19.8562 27.7619C19.5685 27.9332 19.2951 28.1331 19.0361 28.3616C18.7771 28.5615 18.5324 28.7899 18.3022 29.0469C18.1008 29.2754 17.9137 29.5181 17.741 29.7752C17.5684 30.0322 17.4245 30.2892 17.3094 30.5462C17.223 30.8032 17.1367 31.0745 17.0504 31.3601L11.9998 66.9997L26.0287 66.9994L30.3459 36.5861L30.3451 36.5854L31.641 26.948L35.3102 32.4738L35.8282 32.9879C35.9721 33.1021 36.1304 33.1878 36.303 33.2449C36.5333 33.3877 36.7923 33.5304 37.08 33.6732C37.3103 33.6447 37.5405 33.6304 37.7707 33.6304C37.8283 33.6018 37.9002 33.5733 37.9866 33.5447L38.0729 33.3734C38.1592 33.3163 38.2312 33.2449 38.2887 33.1592C38.3463 33.1306 38.3896 33.1022 38.4184 33.0736L38.6771 32.1733Z" fill="#FFAD33"/>
</svg>
